<svg width="23" height="45" viewBox="0 0 23 45" fill="none" xmlns="http://www.w3.org/2000/svg">
<path d="M22.5 45C19.5453 45 16.6194 44.418 13.8896 43.2873C11.1598 42.1566 8.67941 40.4992 6.59009 38.4099C4.50078 36.3206 2.84344 33.8402 1.71271 31.1104C0.581977 28.3805 -1.11266e-06 25.4547 -9.83506e-07 22.5C-8.5435e-07 19.5453 0.581981 16.6194 1.71271 13.8896C2.84344 11.1598 4.50078 8.67941 6.5901 6.59009C8.67942 4.50078 11.1598 2.84344 13.8896 1.71271C16.6194 0.581978 19.5453 -1.37097e-06 22.5 -9.83506e-07L22.5 3.95633C20.0648 3.95633 17.6535 4.43598 15.4036 5.36788C13.1538 6.29979 11.1096 7.66571 9.38765 9.38765C7.66571 11.1096 6.29979 13.1538 5.36788 15.4036C4.43598 17.6535 3.95633 20.0648 3.95633 22.5C3.95633 24.9352 4.43598 27.3465 5.36788 29.5964C6.29979 31.8462 7.66571 33.8904 9.38764 35.6123C11.1096 37.3343 13.1538 38.7002 15.4036 39.6321C17.6535 40.564 20.0648 41.0437 22.5 41.0437L22.5 45Z" fill="#FF7B29"/>
</svg>
